<svg width="20" height="18" viewBox="0 0 20 18" fill="none" xmlns="http://www.w3.org/2000/svg">
<path d="M1.25 10.2483L16.075 10.2483L11.5375 15.6983C11.3253 15.9536 11.2232 16.2827 11.2537 16.6132C11.2842 16.9438 11.4447 17.2486 11.7 17.4608C11.9553 17.673 12.2844 17.7751 12.6149 17.7446C12.9454 17.7141 13.2503 17.5536 13.4625 17.2983L19.7125 9.79831C19.7545 9.73866 19.7922 9.67599 19.825 9.61081C19.825 9.54831 19.825 9.51081 19.9125 9.44831C19.9692 9.30499 19.9988 9.15242 20 8.99831C19.9988 8.8442 19.9692 8.69164 19.9125 8.54831C19.9125 8.48581 19.9125 8.44831 19.825 8.38581C19.7922 8.32064 19.7545 8.25797 19.7125 8.19831L13.4625 0.698313C13.345 0.55721 13.1978 0.443734 13.0314 0.365958C12.8651 0.288182 12.6836 0.248014 12.5 0.248313C12.2079 0.247742 11.9249 0.349461 11.7 0.535812C11.5734 0.640749 11.4688 0.769626 11.3921 0.91506C11.3154 1.06049 11.2682 1.21963 11.2531 1.38335C11.238 1.54707 11.2553 1.71216 11.3041 1.86916C11.3529 2.02617 11.4322 2.172 11.5375 2.29831L16.075 7.74831L1.25 7.74831C0.918479 7.74831 0.600536 7.88001 0.366116 8.11443C0.131695 8.34885 0 8.66679 0 8.99831C0 9.32983 0.131695 9.64778 0.366116 9.8822C0.600536 10.1166 0.918479 10.2483 1.25 10.2483Z" fill="#DC7000"/>
</svg>
