<svg width="12" height="11" viewBox="0 0 12 11" fill="none" xmlns="http://www.w3.org/2000/svg">
<g filter="url(#filter0_d_1_496)">
<path d="M0.721267 6.98509C0.770368 6.99306 0.820059 6.99673 0.869777 6.99609L9.33554 6.99609L9.15094 7.08195C8.9705 7.16735 8.80635 7.28359 8.66583 7.42539L6.29182 9.7994C5.97916 10.0979 5.92662 10.578 6.16733 10.937C6.44747 11.3196 6.98471 11.4027 7.36732 11.1225C7.39823 11.0999 7.42761 11.0752 7.45522 11.0487L11.7482 6.75568C12.0837 6.42056 12.084 5.87694 11.7489 5.54145C11.7486 5.54123 11.7484 5.54099 11.7482 5.54077L7.45522 1.24781C7.11945 0.912982 6.57583 0.913733 6.24098 1.2495C6.21463 1.27593 6.19002 1.30404 6.16733 1.33367C5.92662 1.69269 5.97916 2.17283 6.29182 2.4713L8.66154 4.84961C8.78751 4.97571 8.93235 5.08145 9.09084 5.16299L9.34841 5.2789L0.917026 5.2789C0.478419 5.26262 0.0936076 5.569 0.0112094 6.00012C-0.0646956 6.46819 0.253199 6.90916 0.721267 6.98509Z" fill="white"/>
</g>
<defs>
<filter id="filter0_d_1_496" x="-4" y="0.99707" width="20" height="18.2914" filterUnits="userSpaceOnUse" color-interpolation-filters="sRGB">
<feFlood flood-opacity="0" result="BackgroundImageFix"/>
<feColorMatrix in="SourceAlpha" type="matrix" values="0 0 0 0 0 0 0 0 0 0 0 0 0 0 0 0 0 0 127 0" result="hardAlpha"/>
<feOffset dy="4"/>
<feGaussianBlur stdDeviation="2"/>
<feComposite in2="hardAlpha" operator="out"/>
<feColorMatrix type="matrix" values="0 0 0 0 0 0 0 0 0 0 0 0 0 0 0 0 0 0 0.25 0"/>
<feBlend mode="normal" in2="BackgroundImageFix" result="effect1_dropShadow_1_496"/>
<feBlend mode="normal" in="SourceGraphic" in2="effect1_dropShadow_1_496" result="shape"/>
</filter>
</defs>
</svg>
